<?xml version="1.0" encoding="utf-8"?>
<!-- Generator: Adobe Illustrator 16.0.0, SVG Export Plug-In . SVG Version: 6.00 Build 0)  -->
<!DOCTYPE svg PUBLIC "-//W3C//DTD SVG 1.0//EN" "http://www.w3.org/TR/2001/REC-SVG-20010904/DTD/svg10.dtd">
<svg version="1.0" id="Layer_1" xmlns="http://www.w3.org/2000/svg" xmlns:xlink="http://www.w3.org/1999/xlink" x="0px" y="0px"
	 width="800px" height="800px" viewBox="0 0 800 800" enable-background="new 0 0 800 800" xml:space="preserve">
<g id="Layer_2_1_">
	<g id="Surfaces">
		<g id="UI_UX_Surface">
			<g id="Outline_no_shadow">
				<path fill="#470137" d="M156.221,31.972h487.56c73.919,0,133.685,59.766,133.685,133.686v468.686
					c0,73.92-59.766,133.686-133.685,133.686h-487.56c-73.92,0-133.686-59.766-133.686-133.686V165.657
					C22.535,91.737,82.301,31.972,156.221,31.972z"/>
			</g>
		</g>
	</g>
	<g id="Outlined_Mnemonics_Logos">
		<g id="Xd">
			<path fill="#FF61F6" d="M419.502,225.422l-94.366,155.705l100.657,165.141c0.63,1.259,0.944,2.517,0.63,3.774
				c-0.314,1.259-1.573,0.314-3.46,0.63H350.93c-5.033,0-8.493-0.315-10.695-3.461c-6.606-13.211-13.526-26.108-20.132-39.319
				c-6.605-12.896-13.84-26.107-21.39-39.634c-7.549-13.525-15.099-27.051-22.647-40.892h-0.629
				c-6.606,13.525-13.84,27.052-21.075,40.578c-7.234,13.525-14.47,27.051-21.39,40.263c-7.234,13.211-14.469,26.737-21.704,39.633
				c-1.258,3.146-3.775,3.461-7.235,3.461h-69.202c-1.258,0-2.202,0.629-2.202-0.944c-0.314-1.258,0-2.517,0.629-3.46
				l97.826-160.423l-95.31-161.365c-0.944-1.258-1.258-2.517-0.629-3.146c0.629-0.944,1.887-1.258,3.146-1.258h71.404
				c1.573,0,3.146,0.314,4.404,0.629c1.258,0.629,2.202,1.572,3.146,2.831c5.977,13.526,12.897,27.052,20.131,40.578
				c7.549,13.526,14.784,26.737,22.648,39.949c7.549,13.211,14.47,26.422,21.075,39.948h0.629
				c6.606-13.841,13.526-27.366,20.446-40.578c6.92-13.211,14.155-26.422,21.39-39.634c7.234-13.211,14.155-26.736,21.075-39.633
				c0.314-1.258,0.943-2.517,1.888-3.146c1.258-0.629,2.516-0.943,4.088-0.629h66.371c1.573-0.314,3.146,0.629,3.461,2.202
				C420.761,223.535,420.132,224.793,419.502,225.422L419.502,225.422z"/>
			<path fill="#FF61F6" d="M564.826,557.276c-23.277,0.315-46.554-4.403-67.629-14.154c-19.816-9.122-36.174-24.221-47.498-42.779
				c-11.638-19.188-17.3-43.094-17.3-71.718c-0.315-23.277,5.662-46.24,17.3-66.371c11.954-20.446,29.254-37.432,50.015-48.756
				c22.019-12.268,48.441-18.244,79.582-18.244c1.572,0,3.775,0,6.604,0.314c2.832,0.315,5.978,0.315,9.753,0.629v-99.399
				c0-2.202,0.943-3.46,3.145-3.46h63.855c1.572-0.315,2.831,0.943,3.145,2.202c0,0.315,0,0.629,0,0.629v299.457
				c0,5.661,0.314,11.952,0.63,18.873c0.628,6.604,0.943,12.896,1.258,18.243c0,2.203-0.943,4.09-3.146,5.033
				c-16.357,6.92-33.657,11.953-51.272,15.099C597.226,555.704,581.183,557.276,564.826,557.276z M595.653,494.366V355.963
				c-2.832-0.629-5.663-1.258-8.493-1.573c-3.461-0.314-6.921-0.629-10.38-0.629c-12.27,0-24.536,2.517-35.545,8.179
				c-10.695,5.348-19.817,13.211-26.737,23.277c-6.921,10.066-10.381,23.592-10.381,39.948c-0.314,11.01,1.573,22.019,5.348,32.399
				c3.146,8.493,7.863,16.042,14.155,22.333c5.977,5.662,13.211,10.066,21.39,12.583c8.492,2.83,17.3,4.088,26.107,4.088
				c4.718,0,9.122-0.313,13.212-0.629C588.417,496.254,591.878,495.625,595.653,494.366z"/>
		</g>
	</g>
</g>
</svg>
